<svg width="22" height="22" viewBox="0 0 22 22" fill="none" xmlns="http://www.w3.org/2000/svg">
<path fill-rule="evenodd" clip-rule="evenodd" d="M10.1477 21.4535C7.76084 21.2148 5.53442 20.1425 3.85975 18.425C2.03529 16.5716 0.956628 14.1116 0.829375 11.514C0.702125 8.91644 1.53518 6.36284 3.16975 4.33999C4.67313 2.47129 6.78285 1.18737 9.13338 0.710685C11.4839 0.234004 13.9271 0.5946 16.0397 1.72999C18.1569 2.88996 19.8097 4.74403 20.7197 6.97999C21.6339 9.22744 21.7556 11.7192 21.0647 14.045C20.3754 16.3618 18.9078 18.3697 16.9097 19.73C14.9285 21.0816 12.5343 21.6919 10.1477 21.4535ZM9.43975 2.17999C7.42549 2.58854 5.61669 3.68655 4.32475 5.28499C2.92583 7.02358 2.2141 9.21537 2.32471 11.4441C2.43532 13.6729 3.36056 15.7835 4.92474 17.375C6.35744 18.8375 8.25855 19.7499 10.2958 19.9528C12.333 20.1557 14.3767 19.6362 16.0697 18.485C17.3441 17.6069 18.3732 16.418 19.0594 15.0309C19.7457 13.6438 20.0665 12.1045 19.9914 10.5587C19.9163 9.01296 19.4478 7.51197 18.6302 6.19795C17.8127 4.88394 16.6732 3.8004 15.3197 3.04999C13.5223 2.0799 11.4411 1.77198 9.43975 2.17999ZM11.9372 14L10.0622 14L10.0622 15.5L11.9372 15.5L11.9372 14ZM10.0622 12.5L10.0622 6.49999L11.9372 6.49999L11.9372 12.5L10.0622 12.5Z" fill="url(#paint0_linear_505_566)"/>
<defs>
<linearGradient id="paint0_linear_505_566" x1="11.1618" y1="21.504" x2="11.1618" y2="0.505681" gradientUnits="userSpaceOnUse">
<stop stop-color="#F79E1B"/>
<stop offset="1" stop-color="#F8C109"/>
</linearGradient>
</defs>
</svg>
