<svg width="20" height="20" viewBox="0 0 20 20" fill="none" xmlns="http://www.w3.org/2000/svg">
<g clip-path="url(#clip0_1_2546)">
<path d="M10.0098 0.62664C4.83211 0.62664 0.634766 4.82395 0.634766 10.0016C0.634766 15.1793 4.83211 19.3766 10.0098 19.3766C15.1874 19.3766 19.3848 15.1793 19.3848 10.0016C19.3848 4.82398 15.1875 0.62664 10.0098 0.62664ZM15.755 15.7469C14.3304 17.1672 12.428 18.0062 10.4185 18.1005C8.40903 18.1948 6.43644 17.5375 4.88508 16.2568C3.33373 14.9762 2.31475 13.1638 2.0267 11.1728C1.73865 9.18186 2.20216 7.15498 3.32691 5.48711C4.45166 3.81924 6.15709 2.62986 8.11088 2.15073C10.0647 1.6716 12.1269 1.93704 13.8956 2.89532C15.6644 3.85361 17.013 5.43609 17.6788 7.33443C18.3445 9.23276 18.2796 11.311 17.4968 13.1641C17.0888 14.1296 16.4972 15.0067 15.755 15.7469Z" fill="white"/>
<path d="M9.36035 6.4448L12.2921 9.3766H5.00488V10.6266H12.2921L9.36035 13.5584L10.2442 14.4423L14.6849 10.0016L10.2442 5.56094L9.36035 6.4448Z" fill="white"/>
</g>
<defs>
<clipPath id="clip0_1_2546">
<rect width="20" height="20" fill="white"/>
</clipPath>
</defs>
</svg>
