<svg width="12" height="13" viewBox="0 0 12 13" fill="none" xmlns="http://www.w3.org/2000/svg">
<path d="M2.5 3C2.36739 3 2.24021 3.05268 2.14645 3.14645C2.05268 3.24021 2 3.36739 2 3.5C2 3.63261 2.05268 3.75978 2.14645 3.85355C2.24021 3.94732 2.36739 4 2.5 4H9.5C9.63261 4 9.75979 3.94732 9.85355 3.85355C9.94732 3.75978 10 3.63261 10 3.5C10 3.36739 9.94732 3.24021 9.85355 3.14645C9.75979 3.05268 9.63261 3 9.5 3H2.5ZM2.16667 0.5C1.59203 0.5 1.04093 0.728273 0.634602 1.1346C0.228273 1.54093 0 2.09203 0 2.66667V10.3333C0 10.908 0.228273 11.4591 0.634602 11.8654C1.04093 12.2717 1.59203 12.5 2.16667 12.5H9.83333C10.408 12.5 10.9591 12.2717 11.3654 11.8654C11.7717 11.4591 12 10.908 12 10.3333V2.66667C12 2.09203 11.7717 1.54093 11.3654 1.1346C10.9591 0.728273 10.408 0.5 9.83333 0.5H2.16667ZM1 2.66667C1 2.02267 1.52267 1.5 2.16667 1.5H9.83333C10.4773 1.5 11 2.02267 11 2.66667V10.3333C11 10.6428 10.8771 10.9395 10.6583 11.1583C10.4395 11.3771 10.1428 11.5 9.83333 11.5H2.16667C1.85725 11.5 1.5605 11.3771 1.34171 11.1583C1.12292 10.9395 1 10.6428 1 10.3333V2.66667Z" fill="black"/>
</svg>
