<svg width="18" height="17" viewBox="0 0 18 17" fill="none" xmlns="http://www.w3.org/2000/svg">
<path d="M5.75 1.5C5.15326 1.5 4.58097 1.73705 4.15901 2.15901C3.73705 2.58097 3.5 3.15326 3.5 3.75C3.5 4.34674 3.73705 4.91903 4.15901 5.34099C4.58097 5.76295 5.15326 6 5.75 6C6.34674 6 6.91903 5.76295 7.34099 5.34099C7.76295 4.91903 8 4.34674 8 3.75C8 3.15326 7.76295 2.58097 7.34099 2.15901C6.91903 1.73705 6.34674 1.5 5.75 1.5ZM2.5 3.75C2.5 2.88805 2.84241 2.0614 3.4519 1.4519C4.0614 0.84241 4.88805 0.5 5.75 0.5C6.61195 0.5 7.4386 0.84241 8.0481 1.4519C8.65759 2.0614 9 2.88805 9 3.75C9 4.61195 8.65759 5.4386 8.0481 6.0481C7.4386 6.65759 6.61195 7 5.75 7C4.88805 7 4.0614 6.65759 3.4519 6.0481C2.84241 5.4386 2.5 4.61195 2.5 3.75ZM2.5 8C1.96957 8 1.46086 8.21071 1.08579 8.58579C0.710714 8.96086 0.5 9.46957 0.5 10V10.084C0.501016 10.1425 0.505021 10.2009 0.512 10.259C0.582794 10.9071 0.812978 11.5276 1.182 12.065C1.883 13.08 3.237 14 5.75 14C8.263 14 9.617 13.08 10.318 12.066C10.6872 11.5283 10.9174 10.9074 10.988 10.259C10.994 10.2008 10.998 10.1425 11 10.084V10C11 9.46957 10.7893 8.96086 10.4142 8.58579C10.0391 8.21071 9.53043 8 9 8H2.5ZM1.5 10.061V10C1.5 9.73478 1.60536 9.48043 1.79289 9.29289C1.98043 9.10536 2.23478 9 2.5 9H9C9.26522 9 9.51957 9.10536 9.70711 9.29289C9.89464 9.48043 10 9.73478 10 10V10.078L9.993 10.161C9.9389 10.6404 9.76789 11.0992 9.495 11.497C9.008 12.201 7.987 13 5.75 13C3.513 13 2.492 12.201 2.005 11.497C1.73219 11.0991 1.56118 10.6404 1.507 10.161C1.50428 10.1334 1.50228 10.1057 1.501 10.078L1.5 10.061ZM13.5 3C13.1022 3 12.7206 3.15804 12.4393 3.43934C12.158 3.72064 12 4.10218 12 4.5C12 4.89782 12.158 5.27936 12.4393 5.56066C12.7206 5.84196 13.1022 6 13.5 6C13.8978 6 14.2794 5.84196 14.5607 5.56066C14.842 5.27936 15 4.89782 15 4.5C15 4.10218 14.842 3.72064 14.5607 3.43934C14.2794 3.15804 13.8978 3 13.5 3ZM11 4.5C11 3.83696 11.2634 3.20107 11.7322 2.73223C12.2011 2.26339 12.837 2 13.5 2C14.163 2 14.7989 2.26339 15.2678 2.73223C15.7366 3.20107 16 3.83696 16 4.5C16 5.16304 15.7366 5.79893 15.2678 6.26777C14.7989 6.73661 14.163 7 13.5 7C12.837 7 12.2011 6.73661 11.7322 6.26777C11.2634 5.79893 11 5.16304 11 4.5ZM14.734 8.324L14.334 9.264L14.297 9.369C14.178 9.754 14.283 10.182 14.573 10.457L15.453 11.292L15.423 11.506C15.3413 11.9512 15.1807 12.3782 14.949 12.767C14.6818 13.2351 14.3234 13.6449 13.895 13.972L12.838 13.62L12.738 13.592C12.5523 13.554 12.3595 13.5726 12.1844 13.6453C12.0094 13.7181 11.8601 13.8416 11.756 14L11.184 14.84L11.128 14.933C11.0197 15.1348 10.9784 15.3659 11.0101 15.5927C11.0417 15.8196 11.1446 16.0305 11.304 16.195L11.684 16.575L11.782 16.665C12.152 16.976 12.643 17.08 13.101 16.937C14.28 16.569 15.363 15.477 16.352 13.662C17.342 11.844 17.692 10.302 17.401 9.034C17.3457 8.77743 17.2246 8.53966 17.0496 8.34401C16.8746 8.14836 16.6518 8.00155 16.403 7.918L15.903 7.758L15.809 7.734C15.369 7.642 14.921 7.882 14.734 8.324Z" fill="#2E2E2E"/>
</svg>
