<svg width="22" height="16" viewBox="0 0 22 16" fill="none" xmlns="http://www.w3.org/2000/svg">
<g clip-path="url(#clip0_558_4296)">
<path d="M19.4168 0H1.76517C0.790292 0 0 0.89543 0 2V14C0 15.1046 0.790292 16 1.76517 16H19.4168C20.3917 16 21.182 15.1046 21.182 14V2C21.182 0.89543 20.3917 0 19.4168 0Z" fill="#252525"/>
<path d="M7.94319 13C10.3804 13 12.3561 10.7614 12.3561 8C12.3561 5.23858 10.3804 3 7.94319 3C5.506 3 3.53027 5.23858 3.53027 8C3.53027 10.7614 5.506 13 7.94319 13Z" fill="#EB001B"/>
<path d="M13.2388 13C15.676 13 17.6518 10.7614 17.6518 8C17.6518 5.23858 15.676 3 13.2388 3C10.8017 3 8.82593 5.23858 8.82593 8C8.82593 10.7614 10.8017 13 13.2388 13Z" fill="#F79E1B"/>
<path fill-rule="evenodd" clip-rule="evenodd" d="M10.5911 3.99951C11.6629 4.91172 12.3563 6.36406 12.3563 7.99988C12.3563 9.6357 11.6629 11.088 10.5911 12.0002C9.51924 11.088 8.82593 9.6357 8.82593 7.99988C8.82593 6.36406 9.51924 4.91172 10.5911 3.99951Z" fill="#FF5F00"/>
</g>
<defs>
<clipPath id="clip0_558_4296">
<rect width="21.182" height="16" fill="white"/>
</clipPath>
</defs>
</svg>
