<svg width="64" height="32" viewBox="0 0 64 32" fill="none" xmlns="http://www.w3.org/2000/svg">
<rect width="64" height="32" rx="2" fill="#F79E1B"/>
<path fill-rule="evenodd" clip-rule="evenodd" d="M39.742 28C46.5119 28 52 22.6274 52 16C52 9.37258 46.5119 4 39.742 4C32.972 4 27.4839 9.37258 27.4839 16C27.4839 22.6274 32.972 28 39.742 28Z" fill="white"/>
<path fill-rule="evenodd" clip-rule="evenodd" d="M24.2581 28C31.028 28 36.5161 22.6274 36.5161 16C36.5161 9.37258 31.028 4 24.2581 4C17.4881 4 12 9.37258 12 16C12 22.6274 17.4881 28 24.2581 28Z" fill="#EB001B"/>
<path fill-rule="evenodd" clip-rule="evenodd" d="M31.9998 6.6958C29.2438 8.89625 27.4839 12.2468 27.4839 15.9998C27.4839 19.7528 29.2438 23.1034 31.9998 25.3038C34.7557 23.1034 36.5156 19.7528 36.5156 15.9998C36.5156 12.2468 34.7557 8.89625 31.9998 6.6958Z" fill="#FF5F00"/>
</svg>
