<svg width="64" height="32" viewBox="0 0 64 32" fill="none" xmlns="http://www.w3.org/2000/svg">
<rect width="64" height="32" rx="2" fill="#1A1F71"/>
<path fill-rule="evenodd" clip-rule="evenodd" d="M42.8887 9.9308C42.1191 9.64289 40.913 9.3335 39.4061 9.3335C35.5664 9.3335 32.8607 11.2611 32.838 14.022C32.817 16.065 34.7689 17.2025 36.2435 17.8835C37.7555 18.5786 38.2647 19.0232 38.2567 19.6448C38.2471 20.5974 37.0495 21.0323 35.9325 21.0323C34.3767 21.0323 33.5509 20.818 32.2744 20.2874L31.7732 20.0611L31.2278 23.2422C32.1365 23.6382 33.8137 23.9826 35.5567 24.0002C39.6422 24.0002 42.2945 22.0951 42.324 19.146C42.3382 17.5294 41.3035 16.2992 39.0621 15.2861C37.7027 14.6283 36.8712 14.1888 36.8803 13.5236C36.8803 12.9343 37.5836 12.3013 39.1047 12.3013C40.3772 12.2815 41.2967 12.5581 42.0135 12.8466L42.3626 13.0095L42.8887 9.9308ZM24.9102 23.7892L27.34 9.58127H31.2257L28.7947 23.7892H24.9102ZM49.852 9.59517H52.8551L56 23.7929H52.3936C52.3936 23.7929 52.0378 22.1617 51.9214 21.6645C51.6217 21.6645 50.3727 21.6629 49.1959 21.6614L49.192 21.6614L49.1858 21.6614L49.1768 21.6614C48.1344 21.6601 47.1531 21.6588 46.9443 21.6588C46.7933 22.0429 46.1264 23.7929 46.1264 23.7929H42.045L47.8161 10.7734C48.2259 9.84744 48.9212 9.59517 49.852 9.59517ZM48.0619 18.7527C48.3837 17.9342 49.6108 14.7803 49.6108 14.7803C49.5995 14.7988 49.675 14.6033 49.7781 14.3364L49.7782 14.3361L49.7785 14.3354C49.8867 14.0554 50.0252 13.697 50.1256 13.4245L50.3878 14.6496C50.3878 14.6496 51.1325 18.0406 51.2886 18.7527H48.0619ZM17.8465 19.2802L21.6504 9.59161H25.7665L19.6491 23.7718L15.537 23.7775L12.0589 11.3507C14.5256 12.5815 16.7329 15.0408 17.4407 17.3113L17.8465 19.2802Z" fill="#F0F0F0"/>
<path fill-rule="evenodd" clip-rule="evenodd" d="M14.3166 9.58252H8.04938L8 9.87778C12.8755 11.0548 16.1016 13.8965 17.4406 17.3118L16.0778 10.7816C15.8428 9.88174 15.16 9.61363 14.3166 9.58252Z" fill="#F9A51A"/>
</svg>
