<svg width="16" height="16" viewBox="0 0 16 16" fill="none" xmlns="http://www.w3.org/2000/svg">
<path d="M14.719 8.286L10.7265 4.293C10.5389 4.1055 10.2845 4.00017 10.0192 4.00017C9.754 4.00017 9.49961 4.1055 9.312 4.293L6.633 6.972L4.5 1H3.5L1 8H2L2.4995 6.5H5.4995L5.901 7.704L2.293 11.312C2.2001 11.4049 2.1264 11.5151 2.07612 11.6365C2.02584 11.7578 1.99996 11.8879 1.99996 12.0192C1.99996 12.1506 2.02584 12.2807 2.07612 12.402C2.1264 12.5234 2.2001 12.6336 2.293 12.7265L4.566 15H9.361L14.719 9.6415C14.8081 9.55249 14.8787 9.44679 14.927 9.33046C14.9752 9.21412 15 9.08943 15 8.9635C15 8.83757 14.9752 8.71288 14.927 8.59654C14.8787 8.48021 14.8081 8.37451 14.719 8.2855V8.286ZM2.8325 5.5L3.998 2L5.166 5.5H2.8325ZM8.9475 14H4.98L3 12.019L6.156 8.8635L10.12 12.827L8.9475 14ZM10.8275 12.12L6.8635 8.1565L10.0195 5L13.983 8.9635L10.8275 12.12Z" fill="#2388FF"/>
</svg>
