<svg width="24" height="24" viewBox="0 0 24 24" fill="none" xmlns="http://www.w3.org/2000/svg">
<path d="M10.9399 12L8.81893 9.87901C8.68231 9.73755 8.60672 9.5481 8.60843 9.35145C8.61014 9.15481 8.68901 8.9667 8.82807 8.82764C8.96712 8.68859 9.15523 8.60971 9.35188 8.608C9.54853 8.60629 9.73798 8.68189 9.87943 8.81851L12.0004 10.9395L14.1214 8.81851C14.1906 8.74687 14.2734 8.68974 14.3649 8.65043C14.4564 8.61112 14.5548 8.59043 14.6544 8.58957C14.754 8.5887 14.8527 8.60768 14.9449 8.64539C15.0371 8.6831 15.1208 8.73879 15.1912 8.80921C15.2616 8.87963 15.3173 8.96337 15.355 9.05554C15.3928 9.14771 15.4117 9.24647 15.4109 9.34606C15.41 9.44564 15.3893 9.54406 15.35 9.63556C15.3107 9.72706 15.2536 9.80982 15.1819 9.87901L13.0609 12L15.1819 14.121C15.2536 14.1902 15.3107 14.2729 15.35 14.3645C15.3893 14.456 15.41 14.5544 15.4109 14.654C15.4117 14.7535 15.3928 14.8523 15.355 14.9445C15.3173 15.0366 15.2616 15.1204 15.1912 15.1908C15.1208 15.2612 15.0371 15.3169 14.9449 15.3546C14.8527 15.3923 14.754 15.4113 14.6544 15.4104C14.5548 15.4096 14.4564 15.3889 14.3649 15.3496C14.2734 15.3103 14.1906 15.2531 14.1214 15.1815L12.0004 13.0605L9.87943 15.1815C9.73798 15.3181 9.54853 15.3937 9.35188 15.392C9.15523 15.3903 8.96712 15.3114 8.82807 15.1724C8.68901 15.0333 8.61014 14.8452 8.60843 14.6486C8.60672 14.4519 8.68231 14.2625 8.81893 14.121L10.9399 12Z" fill="#FF2D46"/>
<path d="M12 21C13.1819 21 14.3522 20.7672 15.4442 20.3149C16.5361 19.8626 17.5282 19.1997 18.364 18.364C19.1997 17.5282 19.8626 16.5361 20.3149 15.4442C20.7672 14.3522 21 13.1819 21 12C21 10.8181 20.7672 9.64778 20.3149 8.55585C19.8626 7.46392 19.1997 6.47177 18.364 5.63604C17.5282 4.80031 16.5361 4.13738 15.4442 3.68508C14.3522 3.23279 13.1819 3 12 3C9.61305 3 7.32387 3.94821 5.63604 5.63604C3.94821 7.32387 3 9.61305 3 12C3 14.3869 3.94821 16.6761 5.63604 18.364C7.32387 20.0518 9.61305 21 12 21ZM12 22.5C9.21523 22.5 6.54451 21.3938 4.57538 19.4246C2.60625 17.4555 1.5 14.7848 1.5 12C1.5 9.21523 2.60625 6.54451 4.57538 4.57538C6.54451 2.60625 9.21523 1.5 12 1.5C14.7848 1.5 17.4555 2.60625 19.4246 4.57538C21.3938 6.54451 22.5 9.21523 22.5 12C22.5 14.7848 21.3938 17.4555 19.4246 19.4246C17.4555 21.3938 14.7848 22.5 12 22.5Z" fill="#FF2D46"/>
</svg>
