<svg width="15" height="14" viewBox="0 0 15 14" fill="none" xmlns="http://www.w3.org/2000/svg">
<path d="M3.5001 3.83333C3.3675 3.83333 3.24032 3.88601 3.14655 3.97978C3.05278 4.07355 3.0001 4.20072 3.0001 4.33333V6.66667C3.0001 6.94267 3.2241 7.16667 3.5001 7.16667H10.5001C10.6327 7.16667 10.7599 7.11399 10.8537 7.02022C10.9474 6.92645 11.0001 6.79927 11.0001 6.66667V4.33333C11.0001 4.20072 10.9474 4.07355 10.8537 3.97978C10.7599 3.88601 10.6327 3.83333 10.5001 3.83333H3.5001ZM4.0001 6.16667V4.83333H10.0001V6.16667H4.0001ZM8.16677 7.83333C8.03416 7.83333 7.90699 7.88601 7.81322 7.97978C7.71945 8.07355 7.66677 8.20072 7.66677 8.33333V8.53333C7.77477 8.51133 7.88611 8.5 8.0001 8.5H11.0001V8.33333C11.0001 8.20072 10.9474 8.07355 10.8537 7.97978C10.7599 7.88601 10.6327 7.83333 10.5001 7.83333H8.16677ZM6.66677 8.33333V9.16667C6.45744 9.44533 6.33344 9.79133 6.33344 10.1667V12.5H1.5001C1.3675 12.5 1.24032 12.4473 1.14655 12.3536C1.05278 12.2598 1.0001 12.1326 1.0001 12V2.988C0.745932 2.84124 0.547288 2.61471 0.434977 2.34354C0.322666 2.07238 0.302965 1.77174 0.37893 1.48824C0.454895 1.20474 0.62228 0.954222 0.855127 0.775545C1.08797 0.596868 1.37327 0.500013 1.66677 0.5H12.3334C12.6269 0.500013 12.9122 0.596868 13.1451 0.775545C13.3779 0.954222 13.5453 1.20474 13.6213 1.48824C13.6972 1.77174 13.6775 2.07238 13.5652 2.34354C13.4529 2.61471 13.2543 2.84124 13.0001 2.988V8.5H12.0001V3.16667H2.0001V11.5H3.0001V8.33333C3.0001 8.20072 3.05278 8.07355 3.14655 7.97978C3.24032 7.88601 3.3675 7.83333 3.5001 7.83333H6.16677C6.29938 7.83333 6.42656 7.88601 6.52032 7.97978C6.61409 8.07355 6.66677 8.20072 6.66677 8.33333ZM1.33344 1.83333C1.33344 1.92174 1.36856 2.00652 1.43107 2.06904C1.49358 2.13155 1.57837 2.16667 1.66677 2.16667H12.3334C12.4218 2.16667 12.5066 2.13155 12.5691 2.06904C12.6317 2.00652 12.6668 1.92174 12.6668 1.83333C12.6668 1.74493 12.6317 1.66014 12.5691 1.59763C12.5066 1.53512 12.4218 1.5 12.3334 1.5H1.66677C1.57837 1.5 1.49358 1.53512 1.43107 1.59763C1.36856 1.66014 1.33344 1.74493 1.33344 1.83333ZM5.66677 11.5V8.83333H4.0001V11.5H5.66677ZM7.0001 10.1667C7.0001 9.90145 7.10546 9.6471 7.293 9.45956C7.48053 9.27202 7.73489 9.16667 8.0001 9.16667H13.3334C13.5987 9.16667 13.853 9.27202 14.0405 9.45956C14.2281 9.6471 14.3334 9.90145 14.3334 10.1667V12.8333C14.3334 13.0985 14.2281 13.3529 14.0405 13.5404C13.853 13.728 13.5987 13.8333 13.3334 13.8333H8.0001C7.73489 13.8333 7.48053 13.728 7.293 13.5404C7.10546 13.3529 7.0001 13.0985 7.0001 12.8333V10.1667ZM13.6668 10.5C13.49 10.5 13.3204 10.4298 13.1954 10.3047C13.0703 10.1797 13.0001 10.0101 13.0001 9.83333H12.3334C12.3334 10.187 12.4739 10.5261 12.724 10.7761C12.974 11.0262 13.3131 11.1667 13.6668 11.1667V10.5ZM13.6668 11.8333C13.3131 11.8333 12.974 11.9738 12.724 12.2239C12.4739 12.4739 12.3334 12.813 12.3334 13.1667H13.0001C13.0001 12.9899 13.0703 12.8203 13.1954 12.6953C13.3204 12.5702 13.49 12.5 13.6668 12.5V11.8333ZM8.33344 9.83333C8.33344 10.0101 8.2632 10.1797 8.13818 10.3047C8.01315 10.4298 7.84358 10.5 7.66677 10.5V11.1667C8.02039 11.1667 8.35953 11.0262 8.60958 10.7761C8.85963 10.5261 9.0001 10.187 9.0001 9.83333H8.33344ZM9.0001 13.1667C9.0001 12.813 8.85963 12.4739 8.60958 12.2239C8.35953 11.9738 8.02039 11.8333 7.66677 11.8333V12.5C7.84358 12.5 8.01315 12.5702 8.13818 12.6953C8.2632 12.8203 8.33344 12.9899 8.33344 13.1667H9.0001ZM11.8334 11.5C11.8334 11.1906 11.7105 10.8938 11.4917 10.675C11.2729 10.4562 10.9762 10.3333 10.6668 10.3333C10.3574 10.3333 10.0606 10.4562 9.84181 10.675C9.62302 10.8938 9.5001 11.1906 9.5001 11.5C9.5001 11.8094 9.62302 12.1062 9.84181 12.325C10.0606 12.5437 10.3574 12.6667 10.6668 12.6667C10.9762 12.6667 11.2729 12.5437 11.4917 12.325C11.7105 12.1062 11.8334 11.8094 11.8334 11.5Z" fill="#083EA1"/>
</svg>
