<svg width="10" height="14" viewBox="0 0 10 14" fill="none" xmlns="http://www.w3.org/2000/svg">
<path d="M7.19995 6.39998C7.04082 6.39998 6.88821 6.33676 6.77569 6.22424C6.66317 6.11172 6.59995 5.95911 6.59995 5.79998C6.59995 5.64085 6.66317 5.48823 6.77569 5.37571C6.88821 5.26319 7.04082 5.19998 7.19995 5.19998C7.35908 5.19998 7.51169 5.26319 7.62422 5.37571C7.73674 5.48823 7.79995 5.64085 7.79995 5.79998C7.79995 5.95911 7.73674 6.11172 7.62422 6.22424C7.51169 6.33676 7.35908 6.39998 7.19995 6.39998ZM7.19995 8.79998C7.04082 8.79998 6.88821 8.73676 6.77569 8.62424C6.66317 8.51172 6.59995 8.35911 6.59995 8.19998C6.59995 8.04085 6.66317 7.88823 6.77569 7.77571C6.88821 7.66319 7.04082 7.59998 7.19995 7.59998C7.35908 7.59998 7.51169 7.66319 7.62422 7.77571C7.73674 7.88823 7.79995 8.04085 7.79995 8.19998C7.79995 8.35911 7.73674 8.51172 7.62422 8.62424C7.51169 8.73676 7.35908 8.79998 7.19995 8.79998ZM6.59995 10.6C6.59995 10.7591 6.66317 10.9117 6.77569 11.0242C6.88821 11.1368 7.04082 11.2 7.19995 11.2C7.35908 11.2 7.51169 11.1368 7.62422 11.0242C7.73674 10.9117 7.79995 10.7591 7.79995 10.6C7.79995 10.4408 7.73674 10.2882 7.62422 10.1757C7.51169 10.0632 7.35908 9.99998 7.19995 9.99998C7.04082 9.99998 6.88821 10.0632 6.77569 10.1757C6.66317 10.2882 6.59995 10.4408 6.59995 10.6ZM5.79995 5.79998C5.79995 5.69389 5.75781 5.59215 5.68279 5.51713C5.60778 5.44212 5.50604 5.39998 5.39995 5.39998H2.59995C2.49386 5.39998 2.39212 5.44212 2.31711 5.51713C2.24209 5.59215 2.19995 5.69389 2.19995 5.79998C2.19995 5.90606 2.24209 6.0078 2.31711 6.08282C2.39212 6.15783 2.49386 6.19998 2.59995 6.19998H5.39995C5.50604 6.19998 5.60778 6.15783 5.68279 6.08282C5.75781 6.0078 5.79995 5.90606 5.79995 5.79998ZM5.79995 8.19998C5.79995 8.09389 5.75781 7.99215 5.68279 7.91713C5.60778 7.84212 5.50604 7.79998 5.39995 7.79998H2.59995C2.49386 7.79998 2.39212 7.84212 2.31711 7.91713C2.24209 7.99215 2.19995 8.09389 2.19995 8.19998C2.19995 8.30606 2.24209 8.4078 2.31711 8.48282C2.39212 8.55783 2.49386 8.59998 2.59995 8.59998H5.39995C5.50604 8.59998 5.60778 8.55783 5.68279 8.48282C5.75781 8.4078 5.79995 8.30606 5.79995 8.19998ZM5.79995 10.6C5.79995 10.4939 5.75781 10.3921 5.68279 10.3171C5.60778 10.2421 5.50604 10.2 5.39995 10.2H2.59995C2.49386 10.2 2.39212 10.2421 2.31711 10.3171C2.24209 10.3921 2.19995 10.4939 2.19995 10.6C2.19995 10.7061 2.24209 10.8078 2.31711 10.8828C2.39212 10.9578 2.49386 11 2.59995 11H5.39995C5.50604 11 5.60778 10.9578 5.68279 10.8828C5.75781 10.8078 5.79995 10.7061 5.79995 10.6ZM3.79995 0.599976C3.55169 0.599846 3.3095 0.676718 3.10676 0.819998C2.90402 0.963278 2.7507 1.16591 2.66795 1.39998H1.39995C1.08169 1.39998 0.776467 1.5264 0.551423 1.75145C0.326379 1.97649 0.199951 2.28172 0.199951 2.59998V12.2C0.199951 12.5182 0.326379 12.8235 0.551423 13.0485C0.776467 13.2735 1.08169 13.4 1.39995 13.4H8.59995C8.91821 13.4 9.22344 13.2735 9.44848 13.0485C9.67352 12.8235 9.79995 12.5182 9.79995 12.2V2.59998C9.79995 2.28172 9.67352 1.97649 9.44848 1.75145C9.22344 1.5264 8.91821 1.39998 8.59995 1.39998H7.33195C7.2492 1.16591 7.09589 0.963278 6.89314 0.819998C6.6904 0.676718 6.44821 0.599846 6.19995 0.599976H3.79995ZM3.39995 1.79998C3.39995 1.69389 3.44209 1.59215 3.51711 1.51713C3.59212 1.44212 3.69386 1.39998 3.79995 1.39998H6.19995C6.30604 1.39998 6.40778 1.44212 6.48279 1.51713C6.55781 1.59215 6.59995 1.69389 6.59995 1.79998C6.59995 1.90606 6.55781 2.0078 6.48279 2.08282C6.40778 2.15783 6.30604 2.19998 6.19995 2.19998H3.79995C3.69386 2.19998 3.59212 2.15783 3.51711 2.08282C3.44209 2.0078 3.39995 1.90606 3.39995 1.79998ZM1.39995 2.19998H2.66795C2.7507 2.43404 2.90402 2.63667 3.10676 2.77995C3.3095 2.92323 3.55169 3.00011 3.79995 2.99998H6.19995C6.44821 3.00011 6.6904 2.92323 6.89314 2.77995C7.09589 2.63667 7.2492 2.43404 7.33195 2.19998H8.59995C8.70604 2.19998 8.80778 2.24212 8.88279 2.31713C8.95781 2.39215 8.99995 2.49389 8.99995 2.59998V12.2C8.99995 12.3061 8.95781 12.4078 8.88279 12.4828C8.80778 12.5578 8.70604 12.6 8.59995 12.6H1.39995C1.29386 12.6 1.19212 12.5578 1.11711 12.4828C1.04209 12.4078 0.999951 12.3061 0.999951 12.2V2.59998C0.999951 2.49389 1.04209 2.39215 1.11711 2.31713C1.19212 2.24212 1.29386 2.19998 1.39995 2.19998Z" fill="#2388FF"/>
</svg>
