<svg width="14" height="15" viewBox="0 0 14 15" fill="none" xmlns="http://www.w3.org/2000/svg">
<path d="M13.5333 8.83404C13.2572 10.1825 12.5708 11.4125 11.5683 12.3556C10.5657 13.2988 9.29608 13.9088 7.9333 14.102V12.752C8.93983 12.5725 9.87367 12.1078 10.6239 11.4132C11.374 10.7186 11.909 9.82315 12.1653 8.83337L13.5333 8.83404ZM1.83463 8.83404C2.08811 9.81238 2.61401 10.6987 3.35123 11.39C4.08845 12.0813 5.00671 12.5492 5.9993 12.7394V14.0927C4.64991 13.8871 3.39602 13.2727 2.40671 12.3322C1.41741 11.3918 0.74028 10.1706 0.466633 8.83337H1.83463V8.83404ZM11 6.83337V8.16671H10.3333C9.64914 8.16671 8.99115 8.42966 8.49543 8.90119C7.9997 9.37271 7.70418 10.0167 7.66997 10.7L7.66663 10.8334V11.5H6.3333V10.8334C6.3333 10.1492 6.07034 9.49122 5.59882 8.9955C5.12729 8.49978 4.48327 8.20425 3.79997 8.17004L3.66663 8.16671H2.99997V6.83337H11ZM6.99997 0.833374C10.4566 0.833374 13.2993 3.46471 13.6333 6.83337H12.292C12.1293 5.54464 11.5019 4.35956 10.5276 3.50049C9.55326 2.64143 8.29893 2.16742 6.99997 2.16742C5.701 2.16742 4.44668 2.64143 3.47235 3.50049C2.49802 4.35956 1.87065 5.54464 1.70797 6.83337H0.365967C0.700633 3.46471 3.5433 0.833374 6.99997 0.833374Z" fill="black"/>
</svg>
