<svg width="16" height="16" viewBox="0 0 16 16" fill="none" xmlns="http://www.w3.org/2000/svg">
<path d="M4.79995 8.39961C4.79995 8.29352 4.84209 8.19178 4.91711 8.11677C4.99212 8.04175 5.09386 7.99961 5.19995 7.99961C5.30604 7.99961 5.40778 8.04175 5.48279 8.11677C5.55781 8.19178 5.59995 8.29352 5.59995 8.39961C5.59995 8.5057 5.55781 8.60744 5.48279 8.68245C5.40778 8.75747 5.30604 8.79961 5.19995 8.79961C5.09386 8.79961 4.99212 8.75747 4.91711 8.68245C4.84209 8.60744 4.79995 8.5057 4.79995 8.39961ZM5.19995 9.59961C5.09386 9.59961 4.99212 9.64175 4.91711 9.71677C4.84209 9.79178 4.79995 9.89352 4.79995 9.99961C4.79995 10.1057 4.84209 10.2074 4.91711 10.2825C4.99212 10.3575 5.09386 10.3996 5.19995 10.3996C5.30604 10.3996 5.40778 10.3575 5.48279 10.2825C5.55781 10.2074 5.59995 10.1057 5.59995 9.99961C5.59995 9.89352 5.55781 9.79178 5.48279 9.71677C5.40778 9.64175 5.30604 9.59961 5.19995 9.59961ZM4.79995 11.5996C4.79995 11.4935 4.84209 11.3918 4.91711 11.3168C4.99212 11.2418 5.09386 11.1996 5.19995 11.1996C5.30604 11.1996 5.40778 11.2418 5.48279 11.3168C5.55781 11.3918 5.59995 11.4935 5.59995 11.5996C5.59995 11.7057 5.55781 11.8074 5.48279 11.8825C5.40778 11.9575 5.30604 11.9996 5.19995 11.9996C5.09386 11.9996 4.99212 11.9575 4.91711 11.8825C4.84209 11.8074 4.79995 11.7057 4.79995 11.5996ZM6.79995 7.99961C6.69386 7.99961 6.59212 8.04175 6.51711 8.11677C6.44209 8.19178 6.39995 8.29352 6.39995 8.39961C6.39995 8.5057 6.44209 8.60744 6.51711 8.68245C6.59212 8.75747 6.69386 8.79961 6.79995 8.79961H10.8C10.906 8.79961 11.0078 8.75747 11.0828 8.68245C11.1578 8.60744 11.2 8.5057 11.2 8.39961C11.2 8.29352 11.1578 8.19178 11.0828 8.11677C11.0078 8.04175 10.906 7.99961 10.8 7.99961H6.79995ZM6.39995 9.99961C6.39995 9.89352 6.44209 9.79178 6.51711 9.71677C6.59212 9.64175 6.69386 9.59961 6.79995 9.59961H10.8C10.906 9.59961 11.0078 9.64175 11.0828 9.71677C11.1578 9.79178 11.2 9.89352 11.2 9.99961C11.2 10.1057 11.1578 10.2074 11.0828 10.2825C11.0078 10.3575 10.906 10.3996 10.8 10.3996H6.79995C6.69386 10.3996 6.59212 10.3575 6.51711 10.2825C6.44209 10.2074 6.39995 10.1057 6.39995 9.99961ZM6.79995 11.1996C6.69386 11.1996 6.59212 11.2418 6.51711 11.3168C6.44209 11.3918 6.39995 11.4935 6.39995 11.5996C6.39995 11.7057 6.44209 11.8074 6.51711 11.8825C6.59212 11.9575 6.69386 11.9996 6.79995 11.9996H10.8C10.906 11.9996 11.0078 11.9575 11.0828 11.8825C11.1578 11.8074 11.2 11.7057 11.2 11.5996C11.2 11.4935 11.1578 11.3918 11.0828 11.3168C11.0078 11.2418 10.906 11.1996 10.8 11.1996H6.79995ZM4.79995 1.59961C4.3756 1.59961 3.96864 1.76818 3.66858 2.06824C3.36852 2.3683 3.19995 2.77526 3.19995 3.19961V12.7996C3.19995 13.224 3.36852 13.6309 3.66858 13.931C3.96864 14.231 4.3756 14.3996 4.79995 14.3996H11.2C11.6243 14.3996 12.0313 14.231 12.3313 13.931C12.6314 13.6309 12.8 13.224 12.8 12.7996V5.93081C12.7997 5.61266 12.6731 5.30764 12.448 5.08281L9.31675 1.95081C9.09179 1.72599 8.78679 1.59968 8.46875 1.59961H4.79995ZM3.99995 3.19961C3.99995 2.98744 4.08424 2.78395 4.23427 2.63392C4.38429 2.48389 4.58778 2.39961 4.79995 2.39961H7.99995V5.19961C7.99995 5.51787 8.12638 5.82309 8.35142 6.04814C8.57647 6.27318 8.88169 6.39961 9.19995 6.39961H12V12.7996C12 13.0118 11.9157 13.2153 11.7656 13.3653C11.6156 13.5153 11.4121 13.5996 11.2 13.5996H4.79995C4.58778 13.5996 4.38429 13.5153 4.23427 13.3653C4.08424 13.2153 3.99995 13.0118 3.99995 12.7996V3.19961ZM11.8344 5.59961H9.19995C9.09386 5.59961 8.99212 5.55747 8.91711 5.48245C8.84209 5.40744 8.79995 5.3057 8.79995 5.19961V2.56521L11.8344 5.59961Z" fill="#2388FF"/>
</svg>
