<svg width="20" height="20" viewBox="0 0 20 20" fill="none" xmlns="http://www.w3.org/2000/svg">
<g clip-path="url(#clip0_720_5408)">
<path d="M16.6666 1.66675H7.77775V4.44453H8.88886V2.77786H16.6666C17 2.77786 17.2222 3.00008 17.2222 3.33341V9.44453C17.2222 9.77786 17 10.0001 16.6666 10.0001H9.44442V13.889H6.49997L4.44442 15.5001V13.889H2.77775C2.44442 13.889 2.2222 13.6667 2.2222 13.3334V7.2223C2.2222 6.88897 2.44442 6.66675 2.77775 6.66675H9.99997V5.55564H2.77775C1.83331 5.55564 1.11108 6.27786 1.11108 7.2223V13.3334C1.11108 14.2779 1.83331 15.0001 2.77775 15.0001H3.33331V17.8334L6.83331 15.0001H10.5555V11.1112H16.6666C17.6111 11.1112 18.3333 10.389 18.3333 9.44453V3.33341C18.3333 2.38897 17.6111 1.66675 16.6666 1.66675Z" fill="white"/>
<path d="M3.44446 12.7223H4.77779L5.11112 11.8334H6.83335L7.16668 12.7223H8.50001L6.61112 7.77783H5.27779L3.44446 12.7223ZM5.94446 9.16672L6.50001 10.8889H5.3889L5.94446 9.16672Z" fill="white"/>
<path d="M11.1111 9.44436C11.7222 9.44436 12.5555 9.2777 13.3333 8.88881C14.1111 9.2777 15 9.44436 15.5555 9.44436V8.33325C15.5555 8.33325 15 8.33325 14.3889 8.11103C15.0555 7.44436 15.5555 6.44436 15.5555 4.99992V4.44436H13.8889V3.33325H12.7778V4.44436H11.1111V5.55547H14.3889C14.2778 6.55547 13.8333 7.16659 13.3333 7.55547C13 7.2777 12.6666 6.88881 12.4444 6.38881H11.2778C11.5 7.11103 11.8333 7.66659 12.2778 8.11103C11.7222 8.33325 11.2222 8.33325 11.1111 8.33325V9.44436Z" fill="white"/>
</g>
<defs>
<clipPath id="clip0_720_5408">
<rect width="20" height="20" fill="white"/>
</clipPath>
</defs>
</svg>
