<svg width="32" height="32" viewBox="0 0 32 32" fill="none" xmlns="http://www.w3.org/2000/svg">
<circle cx="16" cy="16" r="15.5" transform="rotate(-180 16 16)" fill="white" stroke="#5C5C5C"/>
<path d="M17.0669 11.3781C17.2331 11.3778 17.3941 11.4357 17.522 11.5417C17.5941 11.6014 17.6536 11.6747 17.6972 11.7575C17.7408 11.8402 17.7677 11.9307 17.7763 12.0239C17.7849 12.117 17.775 12.2109 17.7472 12.3002C17.7195 12.3895 17.6744 12.4725 17.6145 12.5444L14.4287 16.3559L17.5007 20.1746C17.5598 20.2473 17.6039 20.331 17.6305 20.4209C17.6571 20.5107 17.6657 20.6049 17.6558 20.6981C17.6459 20.7913 17.6177 20.8816 17.5728 20.9638C17.5278 21.046 17.4671 21.1186 17.394 21.1773C17.3205 21.242 17.2343 21.2908 17.141 21.3207C17.0476 21.3505 16.9491 21.3608 16.8516 21.3508C16.7541 21.3408 16.6598 21.3107 16.5745 21.2625C16.4891 21.2143 16.4147 21.1489 16.3558 21.0706L12.9212 16.8039C12.8166 16.6767 12.7594 16.5171 12.7594 16.3524C12.7594 16.1877 12.8166 16.0281 12.9212 15.9008L16.4767 11.6341C16.548 11.5481 16.6387 11.4801 16.7412 11.4356C16.8438 11.3911 16.9554 11.3714 17.0669 11.3781Z" fill="#5C5C5C"/>
</svg>
