<svg width="10" height="12" viewBox="0 0 10 12" fill="none" xmlns="http://www.w3.org/2000/svg">
<path d="M9.3672 4.3932H9.096V3.0848C9.09578 3.07649 9.09497 3.0682 9.0936 3.06C9.09404 3.00738 9.07543 2.95637 9.0412 2.9164L6.864 0.43L6.8624 0.428401C6.83475 0.398397 6.79951 0.376423 6.7604 0.364801L6.7484 0.360801C6.73178 0.356657 6.71473 0.354509 6.6976 0.354401H1.3468C1.1024 0.354401 0.904 0.553201 0.904 0.797201V4.3932H0.6328C0.2832 4.3932 0 4.6764 0 5.026V8.3172C0 8.6664 0.2836 8.95 0.6328 8.95H0.904V11.2032C0.904 11.4472 1.1024 11.646 1.3468 11.646H8.6532C8.8972 11.646 9.096 11.4472 9.096 11.2032V8.95H9.3672C9.7168 8.95 10 8.6664 10 8.3172V5.026C10 4.6764 9.7164 4.3932 9.3672 4.3932ZM1.3468 0.797201H6.476V3.0628C6.476 3.1852 6.5752 3.284 6.6976 3.284H8.6536V4.3932H1.3468V0.797201ZM6.7828 6.6892C6.7828 7.322 6.5524 7.7588 6.2328 8.0284C5.8848 8.3176 5.3552 8.4552 4.7076 8.4552C4.32 8.4552 4.0456 8.4304 3.8588 8.4064V5.1588C4.1336 5.1148 4.4916 5.0904 4.8696 5.0904C5.4972 5.0904 5.9044 5.2032 6.2232 5.4436C6.5668 5.6984 6.7828 6.1056 6.7828 6.6892ZM1.0084 8.4212V5.1588C1.2388 5.1196 1.5628 5.0904 2.0188 5.0904C2.48 5.0904 2.8088 5.1788 3.0292 5.3552C3.24 5.522 3.382 5.7968 3.382 6.1204C3.382 6.4444 3.2744 6.7188 3.078 6.9052C2.8228 7.1456 2.4452 7.2536 2.0036 7.2536C1.9056 7.2536 1.8172 7.2488 1.7488 7.2388V8.4212H1.0084ZM8.6532 11.0832H1.3468V8.95H8.6532V11.0832ZM9.2948 5.728H8.024V6.4836H9.2112V7.092H8.024V8.4212H7.274V5.1148H9.2948V5.728Z" fill="#FF2D46"/>
</svg>
