<svg width="16" height="17" viewBox="0 0 16 17" fill="none" xmlns="http://www.w3.org/2000/svg">
<g filter="url(#filter0_d_1199_4945)">
<path fill-rule="evenodd" clip-rule="evenodd" d="M1.5 14.5H15V13.5H2V0.5H1V14L1.5 14.5ZM3 12V4L3.5 3.5H5.5L6 4V12L5.5 12.5H3.5L3 12ZM5 11.5V4.5H4V11.5H5ZM11 2V12L11.5 12.5H13.5L14 12V2L13.5 1.5H11.5L11 2ZM13 2.5V11.5H12V2.5H13ZM7 12V6L7.5 5.5H9.5L10 6V12L9.5 12.5H7.5L7 12ZM9 11.5V6.5H8V11.5H9Z" fill="black"/>
</g>
<defs>
<filter id="filter0_d_1199_4945" x="-3" y="0.5" width="22" height="22" filterUnits="userSpaceOnUse" color-interpolation-filters="sRGB">
<feFlood flood-opacity="0" result="BackgroundImageFix"/>
<feColorMatrix in="SourceAlpha" type="matrix" values="0 0 0 0 0 0 0 0 0 0 0 0 0 0 0 0 0 0 127 0" result="hardAlpha"/>
<feOffset dy="4"/>
<feGaussianBlur stdDeviation="2"/>
<feComposite in2="hardAlpha" operator="out"/>
<feColorMatrix type="matrix" values="0 0 0 0 0 0 0 0 0 0 0 0 0 0 0 0 0 0 0.25 0"/>
<feBlend mode="normal" in2="BackgroundImageFix" result="effect1_dropShadow_1199_4945"/>
<feBlend mode="normal" in="SourceGraphic" in2="effect1_dropShadow_1199_4945" result="shape"/>
</filter>
</defs>
</svg>
