<svg width="20" height="20" viewBox="0 0 20 20" fill="none" xmlns="http://www.w3.org/2000/svg">
<path d="M5.55265 1.94752C5.62521 2.02007 5.68278 2.10621 5.72205 2.201C5.76133 2.2958 5.78154 2.39741 5.78154 2.50002C5.78154 2.60264 5.76133 2.70424 5.72205 2.79904C5.68278 2.89384 5.62521 2.97998 5.55265 3.05252L3.7614 4.84377H10.9376C14.6483 4.84377 17.6564 7.8519 17.6564 11.5625C17.6564 15.2731 14.6483 18.2813 10.9376 18.2813C7.22702 18.2813 4.2189 15.2731 4.2189 11.5625C4.2189 11.3553 4.30121 11.1566 4.44772 11.0101C4.59423 10.8636 4.79295 10.7813 5.00015 10.7813C5.20735 10.7813 5.40606 10.8636 5.55257 11.0101C5.69909 11.1566 5.7814 11.3553 5.7814 11.5625C5.7814 12.5823 6.0838 13.5792 6.65038 14.4272C7.21696 15.2751 8.02225 15.936 8.96443 16.3263C9.90662 16.7165 10.9434 16.8187 11.9436 16.6197C12.9438 16.4207 13.8626 15.9297 14.5837 15.2085C15.3048 14.4874 15.7959 13.5687 15.9948 12.5685C16.1938 11.5682 16.0917 10.5315 15.7014 9.58931C15.3111 8.64713 14.6502 7.84184 13.8023 7.27526C12.9544 6.70868 11.9575 6.40627 10.9376 6.40627H3.7614L5.55265 8.19752C5.69918 8.34406 5.7815 8.5428 5.7815 8.75002C5.7815 8.95725 5.69918 9.15599 5.55265 9.30252C5.40611 9.44906 5.20737 9.53138 5.00015 9.53138C4.79292 9.53138 4.59418 9.44906 4.44765 9.30252L1.32265 6.17752C1.25008 6.10498 1.19251 6.01884 1.15324 5.92404C1.11396 5.82924 1.09375 5.72764 1.09375 5.62502C1.09375 5.52241 1.11396 5.4208 1.15324 5.326C1.19251 5.23121 1.25008 5.14507 1.32265 5.07252L4.44765 1.94752C4.52019 1.87496 4.60633 1.81739 4.70113 1.77812C4.79593 1.73884 4.89753 1.71863 5.00015 1.71863C5.10276 1.71863 5.20437 1.73884 5.29916 1.77812C5.39396 1.81739 5.4801 1.87496 5.55265 1.94752Z" fill="white"/>
</svg>
