<svg width="32" height="32" viewBox="0 0 32 32" fill="none" xmlns="http://www.w3.org/2000/svg">
<circle cx="16" cy="16" r="15.5" fill="white" stroke="#2E2E2E"/>
<path d="M14.9331 20.6219C14.7669 20.6222 14.6059 20.5643 14.478 20.4583C14.4059 20.3986 14.3464 20.3253 14.3028 20.2425C14.2592 20.1598 14.2323 20.0693 14.2237 19.9761C14.2151 19.883 14.225 19.7891 14.2528 19.6998C14.2805 19.6105 14.3256 19.5275 14.3855 19.4556L17.5713 15.6441L14.4993 11.8254C14.4402 11.7527 14.3961 11.669 14.3695 11.5791C14.3429 11.4893 14.3343 11.3951 14.3442 11.3019C14.3541 11.2087 14.3823 11.1184 14.4272 11.0362C14.4722 10.954 14.5329 10.8814 14.606 10.8227C14.6795 10.758 14.7657 10.7092 14.859 10.6793C14.9524 10.6495 15.0509 10.6392 15.1484 10.6492C15.2459 10.6592 15.3402 10.6893 15.4255 10.7375C15.5109 10.7857 15.5853 10.8511 15.6442 10.9294L19.0788 15.1961C19.1834 15.3233 19.2406 15.4829 19.2406 15.6476C19.2406 15.8123 19.1834 15.9719 19.0788 16.0992L15.5233 20.3659C15.452 20.4519 15.3613 20.5199 15.2588 20.5644C15.1562 20.6089 15.0446 20.6286 14.9331 20.6219Z" fill="#2E2E2E"/>
</svg>
