<svg width="12" height="15" viewBox="0 0 12 15" fill="none" xmlns="http://www.w3.org/2000/svg">
<path d="M6.33329 6.33337C6.33329 6.20077 6.38597 6.07359 6.47974 5.97982C6.57351 5.88605 6.70068 5.83337 6.83329 5.83337H9.16663C9.29923 5.83337 9.42641 5.88605 9.52018 5.97982C9.61395 6.07359 9.66663 6.20077 9.66663 6.33337C9.66663 6.46598 9.61395 6.59316 9.52018 6.68693C9.42641 6.78069 9.29923 6.83337 9.16663 6.83337H6.83329C6.70068 6.83337 6.57351 6.78069 6.47974 6.68693C6.38597 6.59316 6.33329 6.46598 6.33329 6.33337ZM6.83329 9.50004C6.70068 9.50004 6.57351 9.55272 6.47974 9.64649C6.38597 9.74026 6.33329 9.86743 6.33329 10C6.33329 10.1326 6.38597 10.2598 6.47974 10.3536C6.57351 10.4474 6.70068 10.5 6.83329 10.5H9.16663C9.29923 10.5 9.42641 10.4474 9.52018 10.3536C9.61395 10.2598 9.66663 10.1326 9.66663 10C9.66663 9.86743 9.61395 9.74026 9.52018 9.64649C9.42641 9.55272 9.29923 9.50004 9.16663 9.50004H6.83329ZM5.18663 6.02004C5.23575 5.97427 5.27515 5.91907 5.30248 5.85773C5.32981 5.7964 5.3445 5.73019 5.34569 5.66305C5.34687 5.59592 5.33452 5.52923 5.30937 5.46698C5.28423 5.40472 5.2468 5.34816 5.19932 5.30068C5.15184 5.2532 5.09528 5.21577 5.03302 5.19063C4.97077 5.16548 4.90408 5.15313 4.83694 5.15431C4.76981 5.1555 4.7036 5.17019 4.64227 5.19752C4.58093 5.22485 4.52573 5.26425 4.47996 5.31337L3.49996 6.29337L3.18663 5.98004C3.09184 5.89172 2.96648 5.84364 2.83694 5.84592C2.70741 5.84821 2.58382 5.90068 2.49221 5.99229C2.4006 6.0839 2.34813 6.20749 2.34584 6.33703C2.34356 6.46656 2.39164 6.59192 2.47996 6.68671L3.14663 7.35337C3.24038 7.44701 3.36746 7.4996 3.49996 7.4996C3.63246 7.4996 3.75954 7.44701 3.85329 7.35337L5.18663 6.02004ZM5.18663 8.98004C5.28026 9.07379 5.33285 9.20087 5.33285 9.33337C5.33285 9.46587 5.28026 9.59296 5.18663 9.68671L3.85329 11.02C3.75954 11.1137 3.63246 11.1663 3.49996 11.1663C3.36746 11.1663 3.24038 11.1137 3.14663 11.02L2.47996 10.3534C2.43083 10.3076 2.39143 10.2524 2.36411 10.1911C2.33678 10.1297 2.32208 10.0635 2.3209 9.99639C2.31971 9.92925 2.33206 9.86257 2.35721 9.80031C2.38236 9.73805 2.41979 9.68149 2.46727 9.63402C2.51475 9.58654 2.5713 9.54911 2.63356 9.52396C2.69582 9.49881 2.76251 9.48646 2.82964 9.48765C2.89678 9.48883 2.96299 9.50352 3.02432 9.53085C3.08565 9.55818 3.14085 9.59758 3.18663 9.64671L3.49996 9.96004L4.47996 8.98004C4.57371 8.88641 4.70079 8.83381 4.83329 8.83381C4.96579 8.83381 5.09288 8.88641 5.18663 8.98004ZM8.66263 2.22271C8.63469 1.84506 8.46494 1.49195 8.18747 1.23425C7.90999 0.976559 7.54531 0.833352 7.16663 0.833374H4.83329C4.46433 0.833385 4.10832 0.969379 3.83332 1.21536C3.55832 1.46133 3.38362 1.80003 3.34263 2.16671H2.16663C1.7688 2.16671 1.38727 2.32474 1.10597 2.60605C0.824661 2.88735 0.666626 3.26888 0.666626 3.66671V12.6667C0.666626 13.0645 0.824661 13.4461 1.10597 13.7274C1.38727 14.0087 1.7688 14.1667 2.16663 14.1667H9.83329C10.0303 14.1667 10.2253 14.1279 10.4073 14.0525C10.5893 13.9771 10.7547 13.8667 10.894 13.7274C11.0332 13.5881 11.1437 13.4227 11.2191 13.2407C11.2945 13.0587 11.3333 12.8637 11.3333 12.6667V3.66671C11.3333 3.46972 11.2945 3.27467 11.2191 3.09268C11.1437 2.91069 11.0332 2.74534 10.894 2.60605C10.7547 2.46676 10.5893 2.35627 10.4073 2.28089C10.2253 2.20551 10.0303 2.16671 9.83329 2.16671H8.65729L8.66263 2.22271ZM8.66263 2.23071L8.66663 2.33337C8.66663 2.29871 8.66529 2.26471 8.66329 2.23071H8.66263ZM4.83329 3.83337H7.16663C7.68663 3.83337 8.14463 3.56871 8.41396 3.16671H9.83329C9.9659 3.16671 10.0931 3.21939 10.1868 3.31315C10.2806 3.40692 10.3333 3.5341 10.3333 3.66671V12.6667C10.3333 12.7993 10.2806 12.9265 10.1868 13.0203C10.0931 13.114 9.9659 13.1667 9.83329 13.1667H2.16663C2.03402 13.1667 1.90684 13.114 1.81307 13.0203C1.7193 12.9265 1.66663 12.7993 1.66663 12.6667V3.66671C1.66663 3.5341 1.7193 3.40692 1.81307 3.31315C1.90684 3.21939 2.03402 3.16671 2.16663 3.16671H3.58596C3.85529 3.56871 4.31329 3.83337 4.83329 3.83337ZM4.83329 1.83337H7.16663C7.29923 1.83337 7.42641 1.88605 7.52018 1.97982C7.61395 2.07359 7.66663 2.20077 7.66663 2.33337C7.66663 2.46598 7.61395 2.59316 7.52018 2.68693C7.42641 2.7807 7.29923 2.83337 7.16663 2.83337H4.83329C4.70068 2.83337 4.57351 2.7807 4.47974 2.68693C4.38597 2.59316 4.33329 2.46598 4.33329 2.33337C4.33329 2.20077 4.38597 2.07359 4.47974 1.97982C4.57351 1.88605 4.70068 1.83337 4.83329 1.83337Z" fill="black"/>
</svg>
