<svg width="14" height="15" viewBox="0 0 14 15" fill="none" xmlns="http://www.w3.org/2000/svg">
<path d="M6.5 2.5C6.36739 2.5 6.24021 2.55268 6.14645 2.64645C6.05268 2.74021 6 2.86739 6 3C6 3.13261 6.05268 3.25979 6.14645 3.35355C6.24021 3.44732 6.36739 3.5 6.5 3.5H7.5C7.63261 3.5 7.75979 3.44732 7.85355 3.35355C7.94732 3.25979 8 3.13261 8 3C8 2.86739 7.94732 2.74021 7.85355 2.64645C7.75979 2.55268 7.63261 2.5 7.5 2.5H6.5ZM5.5 9.75C5.5 9.94891 5.42098 10.1397 5.28033 10.2803C5.13968 10.421 4.94891 10.5 4.75 10.5C4.55109 10.5 4.36032 10.421 4.21967 10.2803C4.07902 10.1397 4 9.94891 4 9.75C4 9.55109 4.07902 9.36032 4.21967 9.21967C4.36032 9.07902 4.55109 9 4.75 9C4.94891 9 5.13968 9.07902 5.28033 9.21967C5.42098 9.36032 5.5 9.55109 5.5 9.75ZM9.25 10.5C9.44891 10.5 9.63968 10.421 9.78033 10.2803C9.92098 10.1397 10 9.94891 10 9.75C10 9.55109 9.92098 9.36032 9.78033 9.21967C9.63968 9.07902 9.44891 9 9.25 9C9.05109 9 8.86032 9.07902 8.71967 9.21967C8.57902 9.36032 8.5 9.55109 8.5 9.75C8.5 9.94891 8.57902 10.1397 8.71967 10.2803C8.86032 10.421 9.05109 10.5 9.25 10.5ZM1 3.4C1 2.63087 1.30553 1.89325 1.84939 1.34939C2.39325 0.805535 3.13087 0.5 3.9 0.5H10.1C10.8691 0.5 11.6068 0.805535 12.1506 1.34939C12.6945 1.89325 13 2.63087 13 3.4V5.5H13.5C13.6326 5.5 13.7598 5.55268 13.8536 5.64645C13.9473 5.74021 14 5.86739 14 6C14 6.13261 13.9473 6.25979 13.8536 6.35355C13.7598 6.44732 13.6326 6.5 13.5 6.5H13V13.2C13 13.5448 12.863 13.8754 12.6192 14.1192C12.3754 14.363 12.0448 14.5 11.7 14.5H10.3C9.95522 14.5 9.62456 14.363 9.38076 14.1192C9.13696 13.8754 9 13.5448 9 13.2V12.5H5V13.2C5 13.5448 4.86304 13.8754 4.61924 14.1192C4.37544 14.363 4.04478 14.5 3.7 14.5H2.3C1.95522 14.5 1.62456 14.363 1.38076 14.1192C1.13696 13.8754 1 13.5448 1 13.2V6.5H0.5C0.367392 6.5 0.240215 6.44732 0.146447 6.35355C0.0526784 6.25979 0 6.13261 0 6C0 5.86739 0.0526784 5.74021 0.146447 5.64645C0.240215 5.55268 0.367392 5.5 0.5 5.5H1V3.4ZM12 3.4C12 2.89609 11.7998 2.41282 11.4435 2.0565C11.0872 1.70018 10.6039 1.5 10.1 1.5H3.9C3.39609 1.5 2.91282 1.70018 2.5565 2.0565C2.20018 2.41282 2 2.89609 2 3.4V7.5H12V3.4ZM10 12.5V13.2C10 13.2394 10.0078 13.2784 10.0228 13.3148C10.0379 13.3512 10.06 13.3843 10.0879 13.4121C10.1157 13.44 10.1488 13.4621 10.1852 13.4772C10.2216 13.4922 10.2606 13.5 10.3 13.5H11.7C11.7394 13.5 11.7784 13.4922 11.8148 13.4772C11.8512 13.4621 11.8843 13.44 11.9121 13.4121C11.94 13.3843 11.9621 13.3512 11.9772 13.3148C11.9922 13.2784 12 13.2394 12 13.2V12.5H10ZM2 12.5V13.2C2 13.2394 2.00776 13.2784 2.02284 13.3148C2.03791 13.3512 2.06001 13.3843 2.08787 13.4121C2.11573 13.44 2.1488 13.4621 2.18519 13.4772C2.22159 13.4922 2.2606 13.5 2.3 13.5H3.7C3.7394 13.5 3.77841 13.4922 3.81481 13.4772C3.8512 13.4621 3.88427 13.44 3.91213 13.4121C3.93999 13.3843 3.96209 13.3512 3.97716 13.3148C3.99224 13.2784 4 13.2394 4 13.2V12.5H2ZM2 11.5H12V8.5H2V11.5Z" fill="black"/>
</svg>
